<svg width="100" height="85" viewBox="0 0 100 85" fill="#2F70E8" xmlns="http://www.w3.org/2000/svg">
  <path class="fill-primary" d="M85.053 42.251V43.438H73.57V59.013H85.053V60.199H73.57V75.774H77.876V76.96H15.718V75.774H21.417L21.46 16.474H15V15.288H21.46V8H30.507V15.288H69.112V16.474H64.957V23.304H68.546V31.049H56.627V23.304H60.216V16.474H30.507V75.774H39.402V48.147H40.555V59.013H55.91V38.608H57.063V42.251H72.418V29.9H73.571V42.25H85.054L85.053 42.251ZM28.723 25.172L22.613 18.958L22.603 31.393L28.723 25.172ZM23.28 61.134L29.354 67.312V54.956L23.28 61.134ZM23.28 46.741L29.354 52.919V40.563L23.28 46.741ZM23.28 32.348L29.354 38.526V26.17L23.28 32.348ZM28.713 39.566L22.616 33.319L22.578 45.803L28.713 39.566ZM28.745 53.94L22.613 47.707L22.606 60.184L28.745 53.94ZM28.751 68.333L22.613 62.091L22.603 74.582L28.751 68.333ZM29.391 75.773V69.386L23.043 75.773H29.391ZM22.649 17.315L29.391 24.16V16.473H22.649V17.315ZM57.78 29.862H67.392V24.49H57.78V29.862ZM61.369 23.303H63.804V16.473H61.369V23.303ZM29.354 9.186H22.612V15.287H29.354V9.186ZM72.416 43.437H57.062V59.012H72.416V43.437ZM40.555 60.198V75.773H55.909V60.198H40.555ZM57.062 75.773H72.416V60.198H57.062V75.773Z"></path>
  <path class="fill-primary" d="M52.26 71.494H44.514V63.75H52.259V71.495L52.26 71.494ZM51.073 64.936H45.701V70.308H51.073V64.936ZM60.911 63.75H68.656V71.494H60.911V63.75ZM62.098 70.308H67.47V64.936H62.098V70.308ZM68.656 55.098H60.911V47.353H68.656V55.098ZM67.47 48.538H62.098V53.911H67.47V48.538Z"></path>
</svg>