<svg xmlns="http://www.w3.org/2000/svg" width="113" height="18" viewBox="0 0 113 18">
    <g fill="#2f70e8" fill-rule="nonzero">
        <path d="M13.028 6.13c8.73.798 8.328-.356 1.746 5.102 1.91 8.052 2.95 7.342-4.6 3.172-7.597 4.192-6.536 4.925-4.625-3.172-6.606-5.48-7.007-4.304 1.77-5.103 3.491-7.542 2.217-7.542 5.709 0zM36.028 6.13c8.73.798 8.328-.356 1.746 5.102 1.91 8.052 2.95 7.342-4.6 3.172-7.597 4.192-6.536 4.925-4.625-3.172-6.606-5.48-7.007-4.304 1.77-5.103 3.491-7.542 2.217-7.542 5.709 0zM60.028 6.13c8.73.798 8.328-.356 1.746 5.102 1.91 8.052 2.95 7.342-4.6 3.172-7.597 4.192-6.536 4.925-4.625-3.172-6.606-5.48-7.007-4.304 1.77-5.103 3.491-7.542 2.217-7.542 5.709 0zM83.028 6.13c8.73.798 8.328-.356 1.746 5.102 1.91 8.052 2.95 7.342-4.6 3.172-7.597 4.192-6.536 4.925-4.625-3.172-6.606-5.48-7.007-4.304 1.77-5.103 3.491-7.542 2.217-7.542 5.709 0zM106.028 6.13c8.73.798 8.328-.356 1.746 5.102 1.91 8.052 2.95 7.342-4.6 3.172-7.597 4.192-6.536 4.925-4.625-3.172-6.606-5.48-7.007-4.304 1.77-5.103 3.491-7.542 2.217-7.542 5.709 0z"/>
    </g>
</svg>