<svg fill="#2F70E8" width="100" height="85" viewBox="0 0 100 85" xmlns="http://www.w3.org/2000/svg">
    <path class="fill-primary" d="M4.05883 33.8H34.4C34.6761 33.8 34.9 34.0239 34.9 34.3C34.9 34.5761 34.6761 34.8 34.4 34.8H3.2C2.81671 34.8 2.57595 34.3865 2.76519 34.0531L11.5652 18.5531C11.654 18.3967 11.8201 18.3 12 18.3H87.5C87.6773 18.3 87.8414 18.3939 87.9312 18.5469L97.0312 34.0469C97.2269 34.3802 96.9865 34.8 96.6 34.8H65.5C65.2239 34.8 65 34.5761 65 34.3C65 34.0239 65.2239 33.8 65.5 33.8H95.7266L87.2137 19.3H12.2911L4.05883 33.8Z"></path>
    <path class="fill-primary" d="M65.9 38.9H96.1V34.8H65.9V38.9ZM65.4 33.8H96.6C96.8761 33.8 97.1 34.0239 97.1 34.3V39.4C97.1 39.6761 96.8761 39.9 96.6 39.9H65.4C65.1239 39.9 64.9 39.6761 64.9 39.4V34.3C64.9 34.0239 65.1239 33.8 65.4 33.8Z"></path>
    <path class="fill-primary" d="M3.19842 39.9C2.92289 39.8991 2.7 39.6755 2.7 39.4V34.3C2.7 34.0232 2.92482 33.7991 3.20158 33.8L34.8016 33.9C35.0771 33.9009 35.3 34.1245 35.3 34.4V39.5C35.3 39.7768 35.0752 40.0009 34.7984 40L3.19842 39.9ZM3.7 38.9016L34.3 38.9984V34.8984L3.7 34.8016V38.9016Z"></path>
    <path class="fill-primary" d="M77.4 18.3V15.3H73V18.3H77.4ZM72 18.8V14.8C72 14.5239 72.2239 14.3 72.5 14.3H77.9C78.1761 14.3 78.4 14.5239 78.4 14.8V18.8C78.4 19.0761 78.1761 19.3 77.9 19.3H72.5C72.2239 19.3 72 19.0761 72 18.8Z"></path>
    <path class="fill-primary" d="M70.8 12V14.3H79.8V12H70.8ZM70.3 11H80.3C80.5761 11 80.8 11.2239 80.8 11.5V14.8C80.8 15.0761 80.5761 15.3 80.3 15.3H70.3C70.0238 15.3 69.8 15.0761 69.8 14.8V11.5C69.8 11.2239 70.0238 11 70.3 11Z"></path>
    <path class="fill-primary" d="M34.3 30.7C34.3 30.5125 34.4049 30.3407 34.5718 30.2551L49.9718 22.3551C50.1159 22.2812 50.2869 22.2817 50.4306 22.3563L65.6306 30.2563C65.7961 30.3424 65.9 30.5134 65.9 30.7V73.8C65.9 74.0761 65.6761 74.3 65.4 74.3H34.8C34.5239 74.3 34.3 74.0761 34.3 73.8V30.7ZM35.3 73.3H64.9V31.0036L50.1985 23.3627L35.3 31.0055V73.3Z"></path>
    <path class="fill-primary" d="M68.0307 31.4564C68.2757 31.5838 68.371 31.8857 68.2436 32.1307C68.1162 32.3757 67.8143 32.471 67.5693 32.3436L65.0693 31.0436C64.8243 30.9162 64.729 30.6143 64.8564 30.3693C64.9838 30.1243 65.2857 30.029 65.5307 30.1564L68.0307 31.4564Z"></path>
    <path class="fill-primary" d="M32.9313 32.2433C32.6865 32.371 32.3844 32.2761 32.2567 32.0313C32.129 31.7865 32.2239 31.4844 32.4687 31.3567L34.7687 30.1567C35.0135 30.029 35.3156 30.1239 35.4433 30.3687C35.571 30.6135 35.4761 30.9156 35.2313 31.0433L32.9313 32.2433Z"></path>
    <path class="fill-primary" d="M1.5 74.3C1.22386 74.3 1 74.0761 1 73.8C1 73.5239 1.22386 73.3 1.5 73.3H98.7C98.9761 73.3 99.2 73.5239 99.2 73.8C99.2 74.0761 98.9761 74.3 98.7 74.3H1.5Z"></path>
    <path class="fill-primary" d="M54 60.7H46.2V73.3H54V60.7ZM54.5 74.3H45.7C45.4239 74.3 45.2 74.0761 45.2 73.8V60.2C45.2 59.9239 45.4239 59.7 45.7 59.7H54.5C54.7761 59.7 55 59.9239 55 60.2V73.8C55 74.0761 54.7761 74.3 54.5 74.3Z"></path>
    <path class="fill-primary" d="M54 45H46.2V52.9H54V45ZM54.5 53.9H45.7C45.4239 53.9 45.2 53.6761 45.2 53.4V44.5C45.2 44.2239 45.4239 44 45.7 44H54.5C54.7761 44 55 44.2239 55 44.5V53.4C55 53.6761 54.7761 53.9 54.5 53.9Z"></path>
    <path class="fill-primary" d="M65.5 39.9C65.2239 39.9 65 39.6761 65 39.4C65 39.1239 65.2239 38.9 65.5 38.9H91.2C91.4761 38.9 91.7 39.1239 91.7 39.4V73.8C91.7 74.0761 91.4761 74.3 91.2 74.3H7.9C7.62386 74.3 7.4 74.0761 7.4 73.8V39.5C7.4 39.2239 7.62386 39 7.9 39H34.6C34.8761 39 35.1 39.2239 35.1 39.5C35.1 39.7761 34.8761 40 34.6 40H8.4V73.3H90.7V39.9H65.5Z"></path>
    <path class="fill-primary" d="M50.6 53.4C50.6 53.6761 50.3761 53.9 50.1 53.9C49.8239 53.9 49.6 53.6761 49.6 53.4V44.7C49.6 44.4239 49.8239 44.2 50.1 44.2C50.3761 44.2 50.6 44.4239 50.6 44.7V53.4Z"></path>
    <path class="fill-primary" d="M45.7 49.4C45.4239 49.4 45.2 49.1761 45.2 48.9C45.2 48.6239 45.4239 48.4 45.7 48.4H54.5C54.7761 48.4 55 48.6239 55 48.9C55 49.1761 54.7761 49.4 54.5 49.4H45.7Z"></path>
    <path class="fill-primary" d="M45.2 32.7C45.2 32.4984 45.321 32.3166 45.5069 32.2388L49.8069 30.4388C49.9279 30.3881 50.0639 30.3871 50.1857 30.4358L54.6857 32.2358C54.8755 32.3117 55 32.4955 55 32.7V38.4C55 38.6761 54.7761 38.9 54.5 38.9H45.7C45.4239 38.9 45.2 38.6761 45.2 38.4V32.7ZM46.2 37.9H54V33.0385L50.0043 31.4402L46.2 33.0327V37.9Z"></path>
    <path class="fill-primary" d="M25.5 45H18.5V53.7H25.5V45ZM26 54.7H18C17.7239 54.7 17.5 54.4761 17.5 54.2V44.5C17.5 44.2239 17.7239 44 18 44H26C26.2761 44 26.5 44.2239 26.5 44.5V54.2C26.5 54.4761 26.2761 54.7 26 54.7Z"></path>
    <path class="fill-primary" d="M26 48.4C26.2761 48.4 26.5 48.6239 26.5 48.9C26.5 49.1761 26.2761 49.4 26 49.4H18C17.7239 49.4 17.5 49.1761 17.5 48.9C17.5 48.6239 17.7239 48.4 18 48.4H26Z"></path>
    <path class="fill-primary" d="M21.5 44.8C21.5 44.5239 21.7239 44.3 22 44.3C22.2761 44.3 22.5 44.5239 22.5 44.8V54C22.5 54.2761 22.2761 54.5 22 54.5C21.7239 54.5 21.5 54.2761 21.5 54V44.8Z"></path>
    <path class="fill-primary" d="M25.5 60.7H18.5V69.4H25.5V60.7ZM26 70.4H18C17.7239 70.4 17.5 70.1761 17.5 69.9V60.2C17.5 59.9239 17.7239 59.7 18 59.7H26C26.2761 59.7 26.5 59.9239 26.5 60.2V69.9C26.5 70.1761 26.2761 70.4 26 70.4Z"></path>
    <path class="fill-primary" d="M25.9938 64.1C26.2699 64.0966 26.4965 64.3176 26.5 64.5938C26.5034 64.8699 26.2824 65.0965 26.0063 65.1L18.0063 65.2C17.7301 65.2034 17.5035 64.9824 17.5 64.7062C17.4966 64.4301 17.7176 64.2035 17.9938 64.2L25.9938 64.1Z"></path>
    <path class="fill-primary" d="M21.5 60.5C21.5 60.2239 21.7239 60 22 60C22.2761 60 22.5 60.2239 22.5 60.5V69.7C22.5 69.9761 22.2761 70.2 22 70.2C21.7239 70.2 21.5 69.9761 21.5 69.7V60.5Z"></path>
    <path class="fill-primary" d="M82.7 60.7H75.7V69.4H82.7V60.7ZM83.2 70.4H75.2C74.9239 70.4 74.7 70.1761 74.7 69.9V60.2C74.7 59.9239 74.9239 59.7 75.2 59.7H83.2C83.4761 59.7 83.7 59.9239 83.7 60.2V69.9C83.7 70.1761 83.4761 70.4 83.2 70.4Z"></path>
    <path class="fill-primary" d="M83.1937 64.1C83.4699 64.0966 83.6965 64.3176 83.7 64.5938C83.7034 64.8699 83.4824 65.0965 83.2062 65.1L75.2062 65.2C74.9301 65.2034 74.7035 64.9824 74.7 64.7062C74.6966 64.4301 74.9176 64.2035 75.1937 64.2L83.1937 64.1Z"></path>
    <path class="fill-primary" d="M78.7 60.5C78.7 60.2239 78.9239 60 79.2 60C79.4761 60 79.7 60.2239 79.7 60.5V69.7C79.7 69.9761 79.4761 70.2 79.2 70.2C78.9239 70.2 78.7 69.9761 78.7 69.7V60.5Z"></path>
    <path class="fill-primary" d="M82.7 45H75.7V53.7H82.7V45ZM83.2 54.7H75.2C74.9239 54.7 74.7 54.4761 74.7 54.2V44.5C74.7 44.2239 74.9239 44 75.2 44H83.2C83.4761 44 83.7 44.2239 83.7 44.5V54.2C83.7 54.4761 83.4761 54.7 83.2 54.7Z"></path>
    <path class="fill-primary" d="M83.2 48.4C83.4761 48.4 83.7 48.6239 83.7 48.9C83.7 49.1761 83.4761 49.4 83.2 49.4H75.2C74.9239 49.4 74.7 49.1761 74.7 48.9C74.7 48.6239 74.9239 48.4 75.2 48.4H83.2Z"></path>
    <path class="fill-primary" d="M78.7 44.8C78.7 44.5239 78.9239 44.3 79.2 44.3C79.4761 44.3 79.7 44.5239 79.7 44.8V54C79.7 54.2761 79.4761 54.5 79.2 54.5C78.9239 54.5 78.7 54.2761 78.7 54V44.8Z"></path>
</svg>