<svg xmlns="http://www.w3.org/2000/svg" width="20" height="21" viewBox="0 0 20 21">
    <path fill="#CEDDFE" fill-rule="nonzero" d="M13.296 2.383A7.734 7.734 0 0 0 7.79.102a7.74 7.74 0 0 0-5.508 2.28A7.735 7.735 0 0 0 0 7.89c0 2.081.81 4.036 2.281 5.508a7.738 7.738 0 0 0 5.508 2.28 7.74 7.74 0 0 0 5.507-2.28c3.038-3.037 3.037-7.978 0-11.015zm-1.402 9.613a5.768 5.768 0 0 1-4.105 1.7 5.77 5.77 0 0 1-4.105-1.7 5.768 5.768 0 0 1-1.7-4.105c0-1.551.604-3.01 1.7-4.105a5.765 5.765 0 0 1 4.105-1.7 5.77 5.77 0 0 1 4.105 1.7 5.812 5.812 0 0 1 0 8.21zm7.816 6.413l-4.158-4.158a.991.991 0 1 0-1.402 1.402l4.158 4.158a.988.988 0 0 0 1.402 0 .993.993 0 0 0 0-1.402z"/>
</svg>